<svg width="28" height="28" viewBox="0 0 28 28" fill="none" xmlns="http://www.w3.org/2000/svg"><path d="M0 3.5C0 1.567 1.567 0 3.5 0H24.5C26.433 0 28 1.567 28 3.5V24.5C28 26.433 26.433 28 24.5 28H3.5C1.567 28 0 26.433 0 24.5V3.5Z" fill="#F5670F"></path><path d="M0 23.3333H28V24.5C28 26.433 26.433 28 24.5 28H3.5C1.567 28 0 26.433 0 24.5V23.3333Z" fill="#DF4D00"></path><path d="M23.3333 0H24.4999C26.4329 0 27.9999 1.567 27.9999 3.5V24.5C27.9999 26.433 26.4329 28 24.4999 28H23.3333V0Z" fill="#FF8940"></path><path d="M23.3333 28H24.4999C26.4329 28 27.9999 26.433 27.9999 24.5V23.3333H23.3333V28Z" fill="#F5670F"></path><path fill-rule="evenodd" clip-rule="evenodd" d="M5.82935 4.66461H12.8293C15.4067 4.66461 17.496 6.75395 17.496 9.33128C17.496 11.9086 15.4067 13.9979 12.8293 13.9979H8.16268V18.6646H5.82935V4.66461ZM8.16268 11.6646H12.8293C14.118 11.6646 15.1627 10.6199 15.1627 9.33128C15.1627 8.04261 14.118 6.99795 12.8293 6.99795H8.16268V11.6646Z" fill="white"></path></svg>
