<svg width="122" height="40" viewBox="0 0 122 40" fill="none" xmlns="http://www.w3.org/2000/svg">
<g clip-path="url(#clip0_4545_1911)">
<path d="M34.2014 15.9231H45.643V18.0769H41.1442V30.1848H38.6703V18.0769H34.1914V15.9231H34.2014ZM45.1542 19.8584H47.269V21.8512H47.3089C47.3787 21.5694 47.5084 21.2976 47.6979 21.036C47.8875 20.7743 48.1169 20.5227 48.3862 20.3113C48.6556 20.0899 48.9548 19.9188 49.284 19.7779C49.6132 19.647 49.9524 19.5766 50.2915 19.5766C50.5509 19.5766 50.7404 19.5866 50.8402 19.5967C50.9399 19.6068 51.0397 19.6269 51.1494 19.637V21.8311C50.9898 21.8009 50.8302 21.7808 50.6606 21.7606C50.491 21.7405 50.3314 21.7304 50.1718 21.7304C49.7927 21.7304 49.4336 21.8109 49.0945 21.9619C48.7553 22.1129 48.466 22.3444 48.2167 22.6363C47.9673 22.9382 47.7678 23.3005 47.6181 23.7434C47.4685 24.1862 47.3987 24.6894 47.3987 25.2631V30.1747H45.1443V19.8584H45.1542ZM61.5137 30.1848H59.2992V28.7455H59.2593C58.98 29.2689 58.571 29.6815 58.0224 29.9935C57.4737 30.3056 56.9151 30.4666 56.3465 30.4666C54.9998 30.4666 54.0223 30.1345 53.4238 29.4601C52.8252 28.7858 52.526 27.7692 52.526 26.4105V19.8584H54.7804V26.1891C54.7804 27.0949 54.95 27.7391 55.2991 28.1114C55.6383 28.4838 56.1271 28.6751 56.7455 28.6751C57.2243 28.6751 57.6134 28.6046 57.9326 28.4536C58.2518 28.3027 58.5111 28.1114 58.7007 27.8598C58.9002 27.6183 59.0398 27.3163 59.1296 26.9741C59.2194 26.6319 59.2593 26.2595 59.2593 25.857V19.8685H61.5137V30.1848ZM65.3542 26.8735C65.424 27.5378 65.6734 28.0007 66.1023 28.2725C66.5413 28.5342 67.06 28.6751 67.6685 28.6751C67.8779 28.6751 68.1173 28.6549 68.3867 28.6247C68.656 28.5946 68.9154 28.5241 69.1448 28.4335C69.3842 28.3429 69.5737 28.202 69.7333 28.0209C69.883 27.8397 69.9528 27.6082 69.9428 27.3163C69.9328 27.0245 69.8231 26.7829 69.6236 26.6017C69.4241 26.4105 69.1747 26.2696 68.8655 26.1488C68.5563 26.0381 68.2071 25.9375 67.8081 25.857C67.4091 25.7764 67.0101 25.6859 66.6011 25.5953C66.1821 25.5047 65.7732 25.3839 65.3841 25.2531C64.9951 25.1222 64.6459 24.9411 64.3367 24.7096C64.0275 24.4882 63.7781 24.1963 63.5985 23.844C63.409 23.4918 63.3192 23.059 63.3192 22.5356C63.3192 21.972 63.4589 21.509 63.7282 21.1265C63.9976 20.7441 64.3467 20.4421 64.7557 20.2107C65.1746 19.9792 65.6335 19.8181 66.1422 19.7175C66.651 19.6269 67.1398 19.5766 67.5986 19.5766C68.1273 19.5766 68.6361 19.637 69.1149 19.7477C69.5937 19.8584 70.0326 20.0396 70.4216 20.3012C70.8107 20.5529 71.1299 20.885 71.3892 21.2876C71.6486 21.6902 71.8082 22.1833 71.878 22.757H69.5239C69.4141 22.2135 69.1747 21.8411 68.7857 21.66C68.3967 21.4687 67.9478 21.3782 67.449 21.3782C67.2894 21.3782 67.0999 21.3882 66.8804 21.4184C66.661 21.4486 66.4614 21.4989 66.2619 21.5694C66.0724 21.6398 65.9128 21.7506 65.7732 21.8915C65.6435 22.0324 65.5736 22.2135 65.5736 22.445C65.5736 22.7268 65.6734 22.9483 65.8629 23.1194C66.0525 23.2905 66.3018 23.4314 66.6111 23.5521C66.9203 23.6628 67.2694 23.7635 67.6685 23.844C68.0675 23.9245 68.4765 24.0151 68.8954 24.1057C69.3044 24.1963 69.7034 24.3171 70.1024 24.4479C70.5014 24.5787 70.8506 24.7599 71.1598 24.9914C71.469 25.2229 71.7184 25.5047 71.908 25.8469C72.0975 26.1891 72.1972 26.6219 72.1972 27.1251C72.1972 27.7391 72.0576 28.2524 71.7783 28.6851C71.499 29.1079 71.1399 29.4601 70.7009 29.7218C70.262 29.9835 69.7633 30.1848 69.2246 30.3056C68.6859 30.4263 68.1473 30.4867 67.6186 30.4867C66.9702 30.4867 66.3717 30.4163 65.823 30.2653C65.2744 30.1143 64.7956 29.8929 64.3966 29.601C63.9976 29.2991 63.6783 28.9267 63.4489 28.4838C63.2195 28.041 63.0998 27.5076 63.0798 26.8936H65.3542V26.8735ZM72.7958 19.8584H74.5015V16.7585H76.7559V19.8584H78.7909V21.5593H76.7559V27.0748C76.7559 27.3163 76.7659 27.5176 76.7859 27.6988C76.8058 27.8699 76.8557 28.0209 76.9255 28.1416C76.9953 28.2624 77.1051 28.353 77.2547 28.4134C77.4043 28.4738 77.5939 28.504 77.8532 28.504C78.0128 28.504 78.1724 28.504 78.332 28.4939C78.4916 28.4838 78.6512 28.4637 78.8109 28.4235V30.1848C78.5615 30.215 78.3121 30.2351 78.0827 30.2653C77.8432 30.2955 77.6038 30.3056 77.3545 30.3056C76.7559 30.3056 76.2771 30.2452 75.918 30.1345C75.5589 30.0237 75.2696 29.8526 75.0701 29.6312C74.8606 29.4098 74.731 29.138 74.6512 28.8059C74.5813 28.4738 74.5315 28.0913 74.5215 27.6686V21.5795H72.8157V19.8584H72.7958ZM80.3869 19.8584H82.5217V21.2574H82.5616C82.8808 20.6535 83.3197 20.2308 83.8883 19.9691C84.4569 19.7074 85.0653 19.5766 85.7337 19.5766C86.5417 19.5766 87.24 19.7175 87.8385 20.0094C88.437 20.2912 88.9358 20.6837 89.3348 21.1869C89.7338 21.6902 90.0231 22.2739 90.2226 22.9382C90.4221 23.6025 90.5218 24.3171 90.5218 25.0719C90.5218 25.7664 90.4321 26.4407 90.2525 27.0848C90.0729 27.7391 89.8036 28.3127 89.4445 28.816C89.0854 29.3192 88.6265 29.7117 88.0679 30.0137C87.5093 30.3156 86.8609 30.4666 86.1028 30.4666C85.7736 30.4666 85.4444 30.4364 85.1152 30.376C84.786 30.3156 84.4668 30.215 84.1676 30.0841C83.8683 29.9533 83.579 29.7822 83.3297 29.5708C83.0703 29.3595 82.8608 29.1179 82.6813 28.8462H82.6414V33.9993H80.3869V19.8584ZM88.2674 25.0316C88.2674 24.5687 88.2076 24.1158 88.0879 23.6729C87.9682 23.2301 87.7886 22.8476 87.5492 22.5054C87.3098 22.1632 87.0105 21.8915 86.6614 21.6902C86.3023 21.4889 85.8933 21.3782 85.4344 21.3782C84.4868 21.3782 83.7686 21.7103 83.2898 22.3746C82.8109 23.0388 82.5715 23.9245 82.5715 25.0316C82.5715 25.555 82.6314 26.0381 82.7611 26.481C82.8907 26.9238 83.0703 27.3063 83.3297 27.6283C83.579 27.9504 83.8783 28.202 84.2274 28.3832C84.5766 28.5744 84.9856 28.665 85.4444 28.665C85.9631 28.665 86.3921 28.5543 86.7512 28.3429C87.1103 28.1316 87.3996 27.8498 87.629 27.5176C87.8584 27.1754 88.028 26.793 88.1278 26.3602C88.2175 25.9274 88.2674 25.4846 88.2674 25.0316ZM92.2476 15.9231H94.502V18.0769H92.2476V15.9231ZM92.2476 19.8584H94.502V30.1848H92.2476V19.8584ZM96.517 15.9231H98.7714V30.1848H96.517V15.9231ZM105.684 30.4666C104.866 30.4666 104.138 30.3257 103.5 30.0539C102.861 29.7822 102.323 29.3997 101.874 28.9267C101.435 28.4436 101.096 27.8699 100.866 27.2056C100.637 26.5414 100.517 25.8066 100.517 25.0115C100.517 24.2265 100.637 23.5018 100.866 22.8375C101.096 22.1733 101.435 21.5996 101.874 21.1165C102.313 20.6334 102.861 20.261 103.5 19.9892C104.138 19.7175 104.866 19.5766 105.684 19.5766C106.502 19.5766 107.23 19.7175 107.869 19.9892C108.507 20.261 109.046 20.6434 109.495 21.1165C109.934 21.5996 110.273 22.1733 110.502 22.8375C110.732 23.5018 110.851 24.2265 110.851 25.0115C110.851 25.8066 110.732 26.5414 110.502 27.2056C110.273 27.8699 109.934 28.4436 109.495 28.9267C109.056 29.4098 108.507 29.7822 107.869 30.0539C107.23 30.3257 106.502 30.4666 105.684 30.4666ZM105.684 28.665C106.183 28.665 106.622 28.5543 106.991 28.3429C107.36 28.1316 107.659 27.8498 107.899 27.5076C108.138 27.1654 108.308 26.7728 108.427 26.3401C108.537 25.9073 108.597 25.4644 108.597 25.0115C108.597 24.5687 108.537 24.1359 108.427 23.693C108.318 23.2502 108.138 22.8677 107.899 22.5255C107.659 22.1833 107.36 21.9116 106.991 21.7002C106.622 21.4889 106.183 21.3782 105.684 21.3782C105.185 21.3782 104.747 21.4889 104.377 21.7002C104.008 21.9116 103.709 22.1934 103.47 22.5255C103.23 22.8677 103.061 23.2502 102.941 23.693C102.831 24.1359 102.771 24.5687 102.771 25.0115C102.771 25.4644 102.831 25.9073 102.941 26.3401C103.051 26.7728 103.23 27.1654 103.47 27.5076C103.709 27.8498 104.008 28.1316 104.377 28.3429C104.747 28.5644 105.185 28.665 105.684 28.665ZM111.51 19.8584H113.216V16.7585H115.47V19.8584H117.505V21.5593H115.47V27.0748C115.47 27.3163 115.48 27.5176 115.5 27.6988C115.52 27.8699 115.57 28.0209 115.64 28.1416C115.709 28.2624 115.819 28.353 115.969 28.4134C116.118 28.4738 116.308 28.504 116.567 28.504C116.727 28.504 116.887 28.504 117.046 28.4939C117.206 28.4838 117.365 28.4637 117.525 28.4235V30.1848C117.276 30.215 117.026 30.2351 116.797 30.2653C116.557 30.2955 116.318 30.3056 116.069 30.3056C115.47 30.3056 114.991 30.2452 114.632 30.1345C114.273 30.0237 113.984 29.8526 113.784 29.6312C113.575 29.4098 113.445 29.138 113.365 28.8059C113.295 28.4738 113.246 28.0913 113.236 27.6686V21.5795H111.53V19.8584H111.51Z" fill="#575757"/>
<path d="M34.2014 15.9231H45.643V18.0769H41.1442V30.1848H38.6703V18.0769H34.1914V15.9231H34.2014ZM45.1542 19.8584H47.269V21.8512H47.3089C47.3787 21.5694 47.5084 21.2976 47.6979 21.036C47.8875 20.7743 48.1169 20.5227 48.3862 20.3113C48.6556 20.0899 48.9548 19.9188 49.284 19.7779C49.6132 19.647 49.9524 19.5766 50.2915 19.5766C50.5509 19.5766 50.7404 19.5866 50.8402 19.5967C50.9399 19.6068 51.0397 19.6269 51.1494 19.637V21.8311C50.9898 21.8009 50.8302 21.7808 50.6606 21.7606C50.491 21.7405 50.3314 21.7304 50.1718 21.7304C49.7927 21.7304 49.4336 21.8109 49.0945 21.9619C48.7553 22.1129 48.466 22.3444 48.2167 22.6363C47.9673 22.9382 47.7678 23.3005 47.6181 23.7434C47.4685 24.1862 47.3987 24.6894 47.3987 25.2631V30.1747H45.1443V19.8584H45.1542ZM61.5137 30.1848H59.2992V28.7455H59.2593C58.98 29.2689 58.571 29.6815 58.0224 29.9935C57.4737 30.3056 56.9151 30.4666 56.3465 30.4666C54.9998 30.4666 54.0223 30.1345 53.4238 29.4601C52.8252 28.7858 52.526 27.7692 52.526 26.4105V19.8584H54.7804V26.1891C54.7804 27.0949 54.95 27.7391 55.2991 28.1114C55.6383 28.4838 56.1271 28.6751 56.7455 28.6751C57.2243 28.6751 57.6134 28.6046 57.9326 28.4536C58.2518 28.3027 58.5111 28.1114 58.7007 27.8598C58.9002 27.6183 59.0398 27.3163 59.1296 26.9741C59.2194 26.6319 59.2593 26.2595 59.2593 25.857V19.8685H61.5137V30.1848ZM65.3542 26.8735C65.424 27.5378 65.6734 28.0007 66.1023 28.2725C66.5413 28.5342 67.06 28.6751 67.6685 28.6751C67.8779 28.6751 68.1173 28.6549 68.3867 28.6247C68.656 28.5946 68.9154 28.5241 69.1448 28.4335C69.3842 28.3429 69.5737 28.202 69.7333 28.0209C69.883 27.8397 69.9528 27.6082 69.9428 27.3163C69.9328 27.0245 69.8231 26.7829 69.6236 26.6017C69.4241 26.4105 69.1747 26.2696 68.8655 26.1488C68.5563 26.0381 68.2071 25.9375 67.8081 25.857C67.4091 25.7764 67.0101 25.6859 66.6011 25.5953C66.1821 25.5047 65.7732 25.3839 65.3841 25.2531C64.9951 25.1222 64.6459 24.9411 64.3367 24.7096C64.0275 24.4882 63.7781 24.1963 63.5985 23.844C63.409 23.4918 63.3192 23.059 63.3192 22.5356C63.3192 21.972 63.4589 21.509 63.7282 21.1265C63.9976 20.7441 64.3467 20.4421 64.7557 20.2107C65.1746 19.9792 65.6335 19.8181 66.1422 19.7175C66.651 19.6269 67.1398 19.5766 67.5986 19.5766C68.1273 19.5766 68.6361 19.637 69.1149 19.7477C69.5937 19.8584 70.0326 20.0396 70.4216 20.3012C70.8107 20.5529 71.1299 20.885 71.3892 21.2876C71.6486 21.6902 71.8082 22.1833 71.878 22.757H69.5239C69.4141 22.2135 69.1747 21.8411 68.7857 21.66C68.3967 21.4687 67.9478 21.3782 67.449 21.3782C67.2894 21.3782 67.0999 21.3882 66.8804 21.4184C66.661 21.4486 66.4614 21.4989 66.2619 21.5694C66.0724 21.6398 65.9128 21.7506 65.7732 21.8915C65.6435 22.0324 65.5736 22.2135 65.5736 22.445C65.5736 22.7268 65.6734 22.9483 65.8629 23.1194C66.0525 23.2905 66.3018 23.4314 66.6111 23.5521C66.9203 23.6628 67.2694 23.7635 67.6685 23.844C68.0675 23.9245 68.4765 24.0151 68.8954 24.1057C69.3044 24.1963 69.7034 24.3171 70.1024 24.4479C70.5014 24.5787 70.8506 24.7599 71.1598 24.9914C71.469 25.2229 71.7184 25.5047 71.908 25.8469C72.0975 26.1891 72.1972 26.6219 72.1972 27.1251C72.1972 27.7391 72.0576 28.2524 71.7783 28.6851C71.499 29.1079 71.1399 29.4601 70.7009 29.7218C70.262 29.9835 69.7633 30.1848 69.2246 30.3056C68.6859 30.4263 68.1473 30.4867 67.6186 30.4867C66.9702 30.4867 66.3717 30.4163 65.823 30.2653C65.2744 30.1143 64.7956 29.8929 64.3966 29.601C63.9976 29.2991 63.6783 28.9267 63.4489 28.4838C63.2195 28.041 63.0998 27.5076 63.0798 26.8936H65.3542V26.8735ZM72.7958 19.8584H74.5015V16.7585H76.7559V19.8584H78.7909V21.5593H76.7559V27.0748C76.7559 27.3163 76.7659 27.5176 76.7859 27.6988C76.8058 27.8699 76.8557 28.0209 76.9255 28.1416C76.9953 28.2624 77.1051 28.353 77.2547 28.4134C77.4043 28.4738 77.5939 28.504 77.8532 28.504C78.0128 28.504 78.1724 28.504 78.332 28.4939C78.4916 28.4838 78.6512 28.4637 78.8109 28.4235V30.1848C78.5615 30.215 78.3121 30.2351 78.0827 30.2653C77.8432 30.2955 77.6038 30.3056 77.3545 30.3056C76.7559 30.3056 76.2771 30.2452 75.918 30.1345C75.5589 30.0237 75.2696 29.8526 75.0701 29.6312C74.8606 29.4098 74.731 29.138 74.6512 28.8059C74.5813 28.4738 74.5315 28.0913 74.5215 27.6686V21.5795H72.8157V19.8584H72.7958ZM80.3869 19.8584H82.5217V21.2574H82.5616C82.8808 20.6535 83.3197 20.2308 83.8883 19.9691C84.4569 19.7074 85.0653 19.5766 85.7337 19.5766C86.5417 19.5766 87.24 19.7175 87.8385 20.0094C88.437 20.2912 88.9358 20.6837 89.3348 21.1869C89.7338 21.6902 90.0231 22.2739 90.2226 22.9382C90.4221 23.6025 90.5218 24.3171 90.5218 25.0719C90.5218 25.7664 90.4321 26.4407 90.2525 27.0848C90.0729 27.7391 89.8036 28.3127 89.4445 28.816C89.0854 29.3192 88.6265 29.7117 88.0679 30.0137C87.5093 30.3156 86.8609 30.4666 86.1028 30.4666C85.7736 30.4666 85.4444 30.4364 85.1152 30.376C84.786 30.3156 84.4668 30.215 84.1676 30.0841C83.8683 29.9533 83.579 29.7822 83.3297 29.5708C83.0703 29.3595 82.8608 29.1179 82.6813 28.8462H82.6414V33.9993H80.3869V19.8584ZM88.2674 25.0316C88.2674 24.5687 88.2076 24.1158 88.0879 23.6729C87.9682 23.2301 87.7886 22.8476 87.5492 22.5054C87.3098 22.1632 87.0105 21.8915 86.6614 21.6902C86.3023 21.4889 85.8933 21.3782 85.4344 21.3782C84.4868 21.3782 83.7686 21.7103 83.2898 22.3746C82.8109 23.0388 82.5715 23.9245 82.5715 25.0316C82.5715 25.555 82.6314 26.0381 82.7611 26.481C82.8907 26.9238 83.0703 27.3063 83.3297 27.6283C83.579 27.9504 83.8783 28.202 84.2274 28.3832C84.5766 28.5744 84.9856 28.665 85.4444 28.665C85.9631 28.665 86.3921 28.5543 86.7512 28.3429C87.1103 28.1316 87.3996 27.8498 87.629 27.5176C87.8584 27.1754 88.028 26.793 88.1278 26.3602C88.2175 25.9274 88.2674 25.4846 88.2674 25.0316ZM92.2476 15.9231H94.502V18.0769H92.2476V15.9231ZM92.2476 19.8584H94.502V30.1848H92.2476V19.8584ZM96.517 15.9231H98.7714V30.1848H96.517V15.9231ZM105.684 30.4666C104.866 30.4666 104.138 30.3257 103.5 30.0539C102.861 29.7822 102.323 29.3997 101.874 28.9267C101.435 28.4436 101.096 27.8699 100.866 27.2056C100.637 26.5414 100.517 25.8066 100.517 25.0115C100.517 24.2265 100.637 23.5018 100.866 22.8375C101.096 22.1733 101.435 21.5996 101.874 21.1165C102.313 20.6334 102.861 20.261 103.5 19.9892C104.138 19.7175 104.866 19.5766 105.684 19.5766C106.502 19.5766 107.23 19.7175 107.869 19.9892C108.507 20.261 109.046 20.6434 109.495 21.1165C109.934 21.5996 110.273 22.1733 110.502 22.8375C110.732 23.5018 110.851 24.2265 110.851 25.0115C110.851 25.8066 110.732 26.5414 110.502 27.2056C110.273 27.8699 109.934 28.4436 109.495 28.9267C109.056 29.4098 108.507 29.7822 107.869 30.0539C107.23 30.3257 106.502 30.4666 105.684 30.4666ZM105.684 28.665C106.183 28.665 106.622 28.5543 106.991 28.3429C107.36 28.1316 107.659 27.8498 107.899 27.5076C108.138 27.1654 108.308 26.7728 108.427 26.3401C108.537 25.9073 108.597 25.4644 108.597 25.0115C108.597 24.5687 108.537 24.1359 108.427 23.693C108.318 23.2502 108.138 22.8677 107.899 22.5255C107.659 22.1833 107.36 21.9116 106.991 21.7002C106.622 21.4889 106.183 21.3782 105.684 21.3782C105.185 21.3782 104.747 21.4889 104.377 21.7002C104.008 21.9116 103.709 22.1934 103.47 22.5255C103.23 22.8677 103.061 23.2502 102.941 23.693C102.831 24.1359 102.771 24.5687 102.771 25.0115C102.771 25.4644 102.831 25.9073 102.941 26.3401C103.051 26.7728 103.23 27.1654 103.47 27.5076C103.709 27.8498 104.008 28.1316 104.377 28.3429C104.747 28.5644 105.185 28.665 105.684 28.665ZM111.51 19.8584H113.216V16.7585H115.47V19.8584H117.505V21.5593H115.47V27.0748C115.47 27.3163 115.48 27.5176 115.5 27.6988C115.52 27.8699 115.57 28.0209 115.64 28.1416C115.709 28.2624 115.819 28.353 115.969 28.4134C116.118 28.4738 116.308 28.504 116.567 28.504C116.727 28.504 116.887 28.504 117.046 28.4939C117.206 28.4838 117.365 28.4637 117.525 28.4235V30.1848C117.276 30.215 117.026 30.2351 116.797 30.2653C116.557 30.2955 116.318 30.3056 116.069 30.3056C115.47 30.3056 114.991 30.2452 114.632 30.1345C114.273 30.0237 113.984 29.8526 113.784 29.6312C113.575 29.4098 113.445 29.138 113.365 28.8059C113.295 28.4738 113.246 28.0913 113.236 27.6686V21.5795H111.53V19.8584H111.51Z" fill="#575757"/>
<path d="M21.2285 15.9238H31.5625L23.2041 22.0537L26.3955 31.9668L18.0361 25.8379L9.66699 31.9668L12.8691 22.0537L4.5 15.9141L14.834 15.9238L18.0361 6L21.2285 15.9238ZM18.0361 25.8369L23.9219 24.2979L23.2041 22.0527L18.0361 25.8369Z" fill="#575757"/>
</g>
<defs>
<clipPath id="clip0_4545_1911">
<rect width="113" height="28" fill="white" transform="translate(4.5 6)"/>
</clipPath>
</defs>
</svg>
